<svg width="51" height="51" viewBox="0 0 51 51" fill="none" xmlns="http://www.w3.org/2000/svg">
<rect x="0.531738" y="0.41748" width="50.2588" height="50.2588" rx="25.1294" fill="#F2FDF6"/>
<path d="M30.8958 35.2331H20.4252C17.2841 35.2331 15.1899 33.6625 15.1899 29.9978V22.6684C15.1899 19.0037 17.2841 17.4331 20.4252 17.4331H30.8958C34.037 17.4331 36.1311 19.0037 36.1311 22.6684V29.9978C36.1311 33.6625 34.037 35.2331 30.8958 35.2331Z" stroke="#22C55E" stroke-width="1.57059" stroke-miterlimit="10" stroke-linecap="round" stroke-linejoin="round"/>
<path d="M25.6607 29.4738C27.3955 29.4738 28.8019 28.0674 28.8019 26.3326C28.8019 24.5978 27.3955 23.1914 25.6607 23.1914C23.9259 23.1914 22.5195 24.5978 22.5195 26.3326C22.5195 28.0674 23.9259 29.4738 25.6607 29.4738Z" stroke="#22C55E" stroke-width="1.57059" stroke-miterlimit="10" stroke-linecap="round" stroke-linejoin="round"/>
<path d="M18.8555 23.7153V28.9506" stroke="#22C55E" stroke-width="1.57059" stroke-miterlimit="10" stroke-linecap="round" stroke-linejoin="round"/>
<path d="M32.4663 23.7153V28.9506" stroke="#22C55E" stroke-width="1.57059" stroke-miterlimit="10" stroke-linecap="round" stroke-linejoin="round"/>
</svg>
